<?xml version="1.0" encoding="UTF-8" standalone="no"?>
<!-- Created with Inkscape (http://www.inkscape.org/) -->

<svg
   xmlns:dc="http://purl.org/dc/elements/1.1/"
   xmlns:cc="http://creativecommons.org/ns#"
   xmlns:rdf="http://www.w3.org/1999/02/22-rdf-syntax-ns#"
   xmlns:svg="http://www.w3.org/2000/svg"
   xmlns="http://www.w3.org/2000/svg"
   xmlns:sodipodi="http://sodipodi.sourceforge.net/DTD/sodipodi-0.dtd"
   xmlns:inkscape="http://www.inkscape.org/namespaces/inkscape"
   width="132.10646mm"
   height="128.32292mm"
   viewBox="0 0 132.10646 128.32292"
   version="1.1"
   id="svg8"
   inkscape:version="0.92.3 (2405546, 2018-03-11)"
   sodipodi:docname="logo-red.svg">
  <defs
     id="defs2" />
  <sodipodi:namedview
     id="base"
     pagecolor="#ffffff"
     bordercolor="#666666"
     borderopacity="1.0"
     inkscape:pageopacity="0.0"
     inkscape:pageshadow="2"
     inkscape:zoom="1.4"
     inkscape:cx="-134.625"
     inkscape:cy="225.92873"
     inkscape:document-units="mm"
     inkscape:current-layer="layer1"
     showgrid="false"
     inkscape:window-width="3200"
     inkscape:window-height="1755"
     inkscape:window-x="-13"
     inkscape:window-y="-13"
     inkscape:window-maximized="1"
     fit-margin-top="0"
     fit-margin-left="0"
     fit-margin-right="0"
     fit-margin-bottom="0" />
  <metadata
     id="metadata5">
    <rdf:RDF>
      <cc:Work
         rdf:about="">
        <dc:format>image/svg+xml</dc:format>
        <dc:type
           rdf:resource="http://purl.org/dc/dcmitype/StillImage" />
        <dc:title></dc:title>
      </cc:Work>
    </rdf:RDF>
  </metadata>
  <g
     inkscape:label="Layer 1"
     inkscape:groupmode="layer"
     id="layer1"
     transform="translate(-52.25332,-41.393602)">
    <g
       id="XMLID_1_"
       transform="matrix(0.26458333,0,0,0.26458333,52.517903,39.276935)"
       style="fill:#d40000;fill-opacity:0.73161765">
	<polygon
   points="96.7,8 3.3,285.9 123.7,285.3 214.2,8 "
   class="st0"
   id="XMLID_13_"
   style="fill:#d40000;fill-opacity:0.73161765" />

	<polygon
   points="400.4,8 282.9,8 189.5,285.9 310,285.3 "
   class="st0"
   id="XMLID_14_"
   style="fill:#d40000;fill-opacity:0.73161765" />

	<polygon
   points="247,97.9 218.3,18 160.7,191.3 186.6,270.6 "
   class="st0"
   id="XMLID_15_"
   style="fill:#d40000;fill-opacity:0.73161765" />

	<polygon
   points="497.4,286.5 404.6,18 346.4,193.1 378.1,285.3 "
   class="st0"
   id="XMLID_16_"
   style="fill:#d40000;fill-opacity:0.73161765" />

	<path
   d="m 130.5,398.1 c -5.1,-4.3 -11.3,-8.1 -18.6,-11.2 -7.4,-3.1 -15.8,-5.9 -25.2,-8.4 -8,-2.1 -14.6,-4 -19.8,-5.6 -5.2,-1.6 -9.4,-3.3 -12.4,-5 -3,-1.8 -5.1,-3.8 -6.3,-6 -1.2,-2.2 -1.7,-4.8 -1.7,-7.8 v -0.5 c 0,-4.6 2,-8.5 6,-11.6 4,-3.1 10,-4.6 17.9,-4.6 8,0 15.9,1.6 23.9,4.9 8,3.3 16.1,7.7 24.4,13.4 l 21.2,-30.8 c -9.6,-7.6 -20,-13.5 -31.5,-17.5 -11.4,-4.1 -23.9,-6.1 -37.6,-6.1 -9.6,0 -18.3,1.3 -26.2,4 -7.9,2.7 -14.8,6.5 -20.5,11.4 -5.7,5 -10.2,10.8 -13.3,17.7 -3.2,6.8 -4.7,14.5 -4.7,23 v 0.5 c 0,9.2 1.5,16.9 4.4,23.1 2.9,6.2 7.1,11.4 12.4,15.5 5.3,4.2 11.8,7.7 19.4,10.5 7.6,2.8 16.2,5.4 25.6,7.7 7.8,1.9 14.2,3.8 19,5.6 4.9,1.8 8.7,3.5 11.4,5.3 2.8,1.8 4.6,3.7 5.6,5.7 1,2 1.5,4.4 1.5,7 v 0.5 c 0,5.5 -2.3,9.8 -7,12.9 -4.7,3.1 -11.3,4.6 -19.8,4.6 -10.6,0 -20.4,-2 -29.3,-6.1 -8.9,-4.1 -17.7,-9.6 -26.2,-16.5 l -24.1,29 c 11.2,10.1 23.5,17.6 37.2,22.4 13.6,4.9 27.5,7.3 41.7,7.3 10.1,0 19.3,-1.3 27.6,-3.9 8.3,-2.6 15.4,-6.3 21.4,-11.2 6,-4.9 10.6,-10.9 14,-18.1 3.3,-7.2 5,-15.4 5,-24.6 v -0.5 c 0,-8.1 -1.3,-15.1 -3.9,-21 -2.6,-5.6 -6.4,-10.7 -11.5,-15 z"
   class="st0"
   id="XMLID_17_"
   inkscape:connector-curvature="0"
   style="fill:#d40000;fill-opacity:0.73161765" />

	<path
   d="m 275.6,449.5 c -7.3,3.9 -16.3,5.8 -27,5.8 -8,0 -15.3,-1.5 -21.9,-4.6 -6.6,-3.1 -12.3,-7.3 -17,-12.6 -4.7,-5.3 -8.4,-11.5 -11,-18.6 -2.7,-7.1 -4,-14.6 -4,-22.6 v -0.5 c 0,-8 1.3,-15.4 4,-22.4 2.7,-7 6.4,-13.1 11.2,-18.5 4.8,-5.3 10.5,-9.5 17.1,-12.5 6.6,-3 13.8,-4.5 21.6,-4.5 9.4,0 17.8,1.9 25.4,5.6 7.5,3.7 14.9,8.9 22.2,15.4 l 26,-30 c -4.2,-4.2 -8.9,-8.1 -13.8,-11.7 -5,-3.5 -10.4,-6.5 -16.2,-9 -5.8,-2.5 -12.3,-4.4 -19.5,-5.8 -7.2,-1.4 -15.1,-2.1 -23.8,-2.1 -14.3,0 -27.4,2.5 -39.3,7.6 -11.9,5 -22,11.9 -30.5,20.7 -8.5,8.8 -15.1,18.9 -19.9,30.5 -4.8,11.6 -7.2,24 -7.2,37.3 v 0.5 c 0,13.3 2.4,25.8 7.2,37.4 4.8,11.7 11.4,21.8 19.9,30.4 8.5,8.6 18.6,15.4 30.3,20.3 11.7,5 24.3,7.4 38,7.4 9,0 17.2,-0.8 24.4,-2.3 7.3,-1.5 13.9,-3.7 20,-6.6 6.1,-2.9 11.7,-6.4 16.9,-10.5 5.1,-4.1 10.1,-8.7 14.9,-13.8 l -26,-26.3 c -7.4,6.7 -14.7,12.1 -22,16 z"
   class="st0"
   id="XMLID_18_"
   inkscape:connector-curvature="0"
   style="fill:#d40000;fill-opacity:0.73161765" />

	<path
   d="m 472.2,433.5 c -7.3,6.7 -14.6,12 -21.9,15.9 -7.3,3.9 -16.3,5.8 -27,5.8 -8,0 -15.3,-1.5 -21.9,-4.6 -6.6,-3.1 -12.3,-7.3 -17,-12.6 -4.7,-5.3 -8.4,-11.5 -11,-18.6 -2.7,-7.1 -4,-14.6 -4,-22.6 v -0.5 c 0,-8 1.3,-15.4 4,-22.4 2.7,-7 6.4,-13.1 11.2,-18.5 4.8,-5.3 10.5,-9.5 17.1,-12.5 6.6,-3 13.9,-4.5 21.6,-4.5 9.4,0 17.8,1.9 25.4,5.6 7.5,3.7 14.9,8.9 22.2,15.4 l 26,-30 c -4.2,-4.2 -8.9,-8.1 -13.8,-11.7 -5,-3.5 -10.4,-6.5 -16.2,-9 -5.8,-2.5 -12.3,-4.4 -19.5,-5.8 -7.2,-1.4 -15.1,-2.1 -23.8,-2.1 -14.3,0 -27.4,2.5 -39.3,7.6 -11.9,5 -22,11.9 -30.5,20.7 -8.5,8.8 -15.1,18.9 -19.9,30.5 -4.8,11.6 -7.2,24 -7.2,37.3 v 0.5 c 0,13.3 2.4,25.8 7.2,37.4 4.8,11.7 11.4,21.8 19.9,30.4 8.5,8.6 18.6,15.4 30.3,20.3 11.7,5 24.3,7.4 38,7.4 9,0 17.2,-0.8 24.4,-2.3 7.3,-1.5 13.9,-3.7 20,-6.6 6.1,-2.9 11.7,-6.4 16.9,-10.5 5.1,-4.1 10.1,-8.7 14.9,-13.8 z"
   class="st0"
   id="XMLID_19_"
   inkscape:connector-curvature="0"
   style="fill:#d40000;fill-opacity:0.73161765" />

</g>
  </g>
  <style
     id="style3713"
     type="text/css">
	.st0{fill:#FFFFFF;}
</style>
</svg>
